<svg width="20" height="20" viewBox="0 0 20 20" fill="none" xmlns="http://www.w3.org/2000/svg">
<path fill-rule="evenodd" clip-rule="evenodd" d="M4.99967 4.50049C3.80306 4.50049 2.83301 5.47054 2.83301 6.66716V13.3338C2.83301 14.5304 3.80306 15.5005 4.99967 15.5005H14.9997C16.1963 15.5005 17.1663 14.5304 17.1663 13.3338V6.66715C17.1663 5.47054 16.1963 4.50049 14.9997 4.50049H4.99967ZM4.11934 5.90155C4.33323 5.65581 4.64831 5.50049 4.99967 5.50049H14.9997C15.3511 5.50049 15.6662 5.65583 15.88 5.90158L9.99971 10.2138L4.11934 5.90155ZM3.83301 6.93164V13.3338C3.83301 13.9782 4.35534 14.5005 4.99967 14.5005H14.9997C15.644 14.5005 16.1663 13.9782 16.1663 13.3338V6.93169L10.2954 11.2371C10.1194 11.3661 9.88002 11.3661 9.70403 11.2371L3.83301 6.93164Z" fill="#3A7CFD"/>
</svg>
