<svg width="20" height="20" viewBox="0 0 20 20" fill="none" xmlns="http://www.w3.org/2000/svg">
<path fill-rule="evenodd" clip-rule="evenodd" d="M5.49967 7.3335C5.49967 4.84821 7.51439 2.8335 9.99968 2.8335C12.485 2.8335 14.4997 4.84821 14.4997 7.3335C14.4997 8.89304 13.6277 10.0162 12.7354 10.9457C12.52 11.17 12.2979 11.3884 12.0832 11.5995L12.0554 11.627C11.8301 11.8485 11.6134 12.0623 11.4093 12.2774C10.9989 12.7098 10.6639 13.1231 10.4469 13.5571C10.3622 13.7265 10.1891 13.8335 9.99968 13.8335C9.81029 13.8335 9.63716 13.7265 9.55246 13.5571C9.33547 13.1231 9.00043 12.7098 8.5901 12.2774C8.38598 12.0623 8.16929 11.8485 7.94399 11.627L7.91613 11.5996C7.70143 11.3884 7.47935 11.17 7.264 10.9457C6.37161 10.0162 5.49967 8.89304 5.49967 7.3335ZM9.99968 7.16683C9.90763 7.16683 9.83301 7.24145 9.83301 7.3335C9.83301 7.42554 9.90763 7.50016 9.99968 7.50016C10.0917 7.50016 10.1663 7.42554 10.1663 7.3335C10.1663 7.24145 10.0917 7.16683 9.99968 7.16683ZM8.83301 7.3335C8.83301 6.68916 9.35534 6.16683 9.99968 6.16683C10.644 6.16683 11.1663 6.68916 11.1663 7.3335C11.1663 7.97783 10.644 8.50016 9.99968 8.50016C9.35534 8.50016 8.83301 7.97783 8.83301 7.3335ZM5.79047 11.3226C5.90193 11.5752 5.78747 11.8704 5.53482 11.9819C4.9563 12.2371 4.51847 12.5297 4.23207 12.8301C3.94811 13.128 3.83301 13.41 3.83301 13.6668C3.83301 14.1759 4.31568 14.8034 5.49081 15.3322C6.61901 15.8399 8.21269 16.1668 9.99968 16.1668C11.7867 16.1668 13.3803 15.8399 14.5085 15.3322C15.6837 14.8034 16.1663 14.1759 16.1663 13.6668C16.1663 13.41 16.0512 13.128 15.7673 12.8301C15.4809 12.5297 15.043 12.2371 14.4645 11.9819C14.2119 11.8704 14.0974 11.5752 14.2089 11.3226C14.3203 11.0699 14.6155 10.9555 14.8682 11.0669C15.5239 11.3562 16.086 11.7152 16.4911 12.1401C16.8986 12.5675 17.1663 13.0845 17.1663 13.6668C17.1663 14.8146 16.1566 15.6871 14.9189 16.2441C13.6342 16.8222 11.8946 17.1668 9.99968 17.1668C8.10477 17.1668 6.36511 16.8222 5.08045 16.2441C3.84272 15.6871 2.83301 14.8146 2.83301 13.6668C2.83301 13.0845 3.10078 12.5675 3.50827 12.1401C3.91331 11.7152 4.47547 11.3562 5.1312 11.0669C5.38385 10.9555 5.67902 11.0699 5.79047 11.3226Z" fill="#C8CBE7"/>
</svg>
