<svg width="20" height="20" viewBox="0 0 20 20" fill="none" xmlns="http://www.w3.org/2000/svg">
<path fill-rule="evenodd" clip-rule="evenodd" d="M6.36528 3.19434L13.6347 3.19434C14.1981 3.19433 14.6546 3.19433 15.0247 3.22457C15.4064 3.25576 15.7449 3.32187 16.0591 3.48196C16.5557 3.73496 16.9594 4.13866 17.2124 4.6352C17.3725 4.94939 17.4386 5.2879 17.4698 5.66966C17.5 6.03976 17.5 6.49624 17.5 7.05956V12.9402C17.5 13.5035 17.5 13.96 17.4698 14.3301C17.4386 14.7119 17.3725 15.0504 17.2124 15.3646C16.9594 15.8611 16.5557 16.2648 16.0591 16.5178C15.7449 16.6779 15.4064 16.744 15.0247 16.7752C14.6546 16.8055 14.1981 16.8055 13.6348 16.8054H6.36529C5.80194 16.8054 5.34544 16.8055 4.97532 16.7752C4.59356 16.744 4.25505 16.6779 3.94086 16.5178C3.44432 16.2648 3.04062 15.8611 2.78762 15.3646C2.62753 15.0504 2.56142 14.7119 2.53023 14.3301C2.49999 13.96 2.49999 13.5035 2.5 12.9402L2.5 7.91697C2.5 7.91683 2.5 7.9171 2.5 7.91697C2.5 7.91683 2.5 7.91628 2.5 7.91615L2.5 7.05962C2.49999 6.49627 2.49999 6.03977 2.53023 5.66966C2.56142 5.2879 2.62753 4.94939 2.78762 4.63519C3.04062 4.13866 3.44432 3.73496 3.94086 3.48196C4.25505 3.32187 4.59356 3.25576 4.97532 3.22456C5.34543 3.19433 5.80193 3.19433 6.36528 3.19434ZM3.61111 8.47211L3.61111 12.9166C3.61111 13.5091 3.61154 13.9201 3.63765 14.2396C3.66323 14.5527 3.71065 14.7287 3.77763 14.8602C3.9241 15.1476 4.15782 15.3813 4.44529 15.5278C4.57675 15.5948 4.75276 15.6422 5.0658 15.6678C5.38533 15.6939 5.79633 15.6943 6.38889 15.6943H13.6111C14.2037 15.6943 14.6147 15.6939 14.9342 15.6678C15.2472 15.6422 15.4233 15.5948 15.5547 15.5278C15.8422 15.3813 16.0759 15.1476 16.2224 14.8602C16.2894 14.7287 16.3368 14.5527 16.3623 14.2396C16.3885 13.9201 16.3889 13.5091 16.3889 12.9166V8.47211H3.61111ZM16.3889 7.361H3.61111V7.08323C3.61111 6.49067 3.61154 6.07967 3.63765 5.76014C3.66323 5.44709 3.71065 5.27108 3.77763 5.13963C3.9241 4.85216 4.15782 4.61844 4.44529 4.47196C4.57675 4.40499 4.75276 4.35756 5.0658 4.33199C5.38533 4.30588 5.79633 4.30545 6.38889 4.30545L13.6111 4.30545C14.2037 4.30545 14.6147 4.30588 14.9342 4.33199C15.2472 4.35756 15.4233 4.40499 15.5547 4.47197C15.8422 4.61844 16.0759 4.85216 16.2224 5.13963C16.2894 5.27108 16.3368 5.44709 16.3623 5.76014C16.3885 6.07967 16.3889 6.49067 16.3889 7.08323V7.361Z" fill="#3A7CFD"/>
</svg>
