<svg width="20" height="20" viewBox="0 0 20 20" fill="none" xmlns="http://www.w3.org/2000/svg">
<path d="M6.75263 13.2149C8.98692 15.4456 11.7082 17.1668 13.927 17.1668C14.9243 17.1668 15.7979 16.8195 16.5014 16.0477C16.9111 15.5923 17.1663 15.0597 17.1663 14.5348C17.1663 14.1489 17.0194 13.7784 16.6483 13.516L14.2826 11.8333C13.9193 11.5863 13.6178 11.4628 13.3395 11.4628C12.9838 11.4628 12.6746 11.6635 12.319 12.0109L11.7701 12.5511C11.685 12.636 11.5768 12.6746 11.4763 12.6746C11.3526 12.6746 11.2444 12.6283 11.1593 12.5897C10.6877 12.335 9.86823 11.6327 9.10286 10.8762C8.34521 10.1198 7.64169 9.30163 7.3943 8.82309C7.34792 8.73819 7.30926 8.63011 7.30926 8.51435C7.30926 8.414 7.3402 8.31366 7.42524 8.22876L7.9664 7.66532C8.3143 7.31024 8.51529 7.0015 8.51529 6.64645C8.51529 6.3686 8.39162 6.06756 8.13648 5.70481L6.4743 3.36608C6.20372 2.99559 5.82491 2.8335 5.40744 2.8335C4.89719 2.8335 4.36374 3.06504 3.91533 3.50502C3.16544 4.22285 2.83301 5.11048 2.83301 6.09072C2.83301 8.30595 4.5261 10.992 6.75263 13.2149Z" fill="#C8CBE7"/>
</svg>
